<mxfile host="app.diagrams.net" modified="2023-11-22T11:45:16.844Z" agent="Mozilla/5.0 (Macintosh; Intel Mac OS X 10_15_7) AppleWebKit/605.1.15 (KHTML, like Gecko) Version/17.1 Safari/605.1.15" etag="knXO8g-KGLk65plP_c5C" version="22.1.3" type="device">
  <diagram name="Page-1" id="rZ-eUcgFqtCECb6IA8Du">
    <mxGraphModel dx="1560" dy="2093" grid="1" gridSize="10" guides="1" tooltips="1" connect="1" arrows="1" fold="1" page="1" pageScale="1" pageWidth="827" pageHeight="1169" math="0" shadow="0">
      <root>
        <mxCell id="0" />
        <mxCell id="1" parent="0" />
        <mxCell id="nhvX_3EtibqRzgdDVzNb-2" value="&lt;font style=&quot;font-size: 16px;&quot;&gt;Filmadatbázis&lt;/font&gt;" style="ellipse;whiteSpace=wrap;html=1;fontSize=16;" parent="1" vertex="1">
          <mxGeometry x="1135" y="-200" width="120" height="80" as="geometry" />
        </mxCell>
        <mxCell id="nhvX_3EtibqRzgdDVzNb-3" value="FILM" style="ellipse;whiteSpace=wrap;html=1;fontSize=16;fillStyle=auto;shadow=0;labelBorderColor=none;labelBackgroundColor=none;" parent="1" vertex="1">
          <mxGeometry x="-430" y="260" width="120" height="80" as="geometry" />
        </mxCell>
        <mxCell id="nhvX_3EtibqRzgdDVzNb-5" value="ÉRTÉKELÉS" style="ellipse;whiteSpace=wrap;html=1;fontSize=16;" parent="1" vertex="1">
          <mxGeometry x="340" y="240" width="120" height="80" as="geometry" />
        </mxCell>
        <mxCell id="nhvX_3EtibqRzgdDVzNb-8" value="Cím" style="ellipse;whiteSpace=wrap;html=1;fontSize=16;" parent="1" vertex="1">
          <mxGeometry x="-530" y="420" width="90" height="60" as="geometry" />
        </mxCell>
        <mxCell id="nhvX_3EtibqRzgdDVzNb-9" value="Kiadás éve" style="ellipse;whiteSpace=wrap;html=1;fontSize=16;" parent="1" vertex="1">
          <mxGeometry x="-410" y="420" width="90" height="60" as="geometry" />
        </mxCell>
        <mxCell id="nhvX_3EtibqRzgdDVzNb-10" value="Műfaj" style="ellipse;whiteSpace=wrap;html=1;fontSize=16;" parent="1" vertex="1">
          <mxGeometry x="-280" y="420" width="90" height="60" as="geometry" />
        </mxCell>
        <mxCell id="nhvX_3EtibqRzgdDVzNb-11" value="" style="endArrow=none;html=1;rounded=0;entryX=0.5;entryY=1;entryDx=0;entryDy=0;exitX=0.5;exitY=0;exitDx=0;exitDy=0;fontSize=16;" parent="1" source="nhvX_3EtibqRzgdDVzNb-10" target="nhvX_3EtibqRzgdDVzNb-3" edge="1">
          <mxGeometry width="50" height="50" relative="1" as="geometry">
            <mxPoint x="-240" y="440" as="sourcePoint" />
            <mxPoint x="-190" y="390" as="targetPoint" />
          </mxGeometry>
        </mxCell>
        <mxCell id="nhvX_3EtibqRzgdDVzNb-12" value="" style="endArrow=none;html=1;rounded=0;exitX=0.5;exitY=0;exitDx=0;exitDy=0;fontSize=16;" parent="1" source="nhvX_3EtibqRzgdDVzNb-9" edge="1">
          <mxGeometry width="50" height="50" relative="1" as="geometry">
            <mxPoint x="-240" y="440" as="sourcePoint" />
            <mxPoint x="-370" y="340" as="targetPoint" />
          </mxGeometry>
        </mxCell>
        <mxCell id="nhvX_3EtibqRzgdDVzNb-13" value="" style="endArrow=none;html=1;rounded=0;entryX=0.5;entryY=1;entryDx=0;entryDy=0;exitX=0.5;exitY=0;exitDx=0;exitDy=0;fontSize=16;" parent="1" source="nhvX_3EtibqRzgdDVzNb-8" target="nhvX_3EtibqRzgdDVzNb-3" edge="1">
          <mxGeometry width="50" height="50" relative="1" as="geometry">
            <mxPoint x="-240" y="440" as="sourcePoint" />
            <mxPoint x="-190" y="390" as="targetPoint" />
          </mxGeometry>
        </mxCell>
        <mxCell id="nhvX_3EtibqRzgdDVzNb-14" value="" style="rounded=0;whiteSpace=wrap;html=1;rotation=90;fontSize=16;" parent="1" vertex="1">
          <mxGeometry x="-545" y="555" width="120" height="60" as="geometry" />
        </mxCell>
        <mxCell id="nhvX_3EtibqRzgdDVzNb-15" value="" style="rounded=0;whiteSpace=wrap;html=1;rotation=90;fontSize=16;" parent="1" vertex="1">
          <mxGeometry x="-295" y="555" width="120" height="60" as="geometry" />
        </mxCell>
        <mxCell id="nhvX_3EtibqRzgdDVzNb-16" value="" style="rounded=0;whiteSpace=wrap;html=1;rotation=90;fontSize=16;" parent="1" vertex="1">
          <mxGeometry x="-425" y="555" width="120" height="60" as="geometry" />
        </mxCell>
        <mxCell id="nhvX_3EtibqRzgdDVzNb-17" value="" style="endArrow=none;html=1;rounded=0;entryX=0.5;entryY=1;entryDx=0;entryDy=0;exitX=0;exitY=0.5;exitDx=0;exitDy=0;fontSize=16;" parent="1" source="nhvX_3EtibqRzgdDVzNb-15" target="nhvX_3EtibqRzgdDVzNb-10" edge="1">
          <mxGeometry width="50" height="50" relative="1" as="geometry">
            <mxPoint x="-240" y="540" as="sourcePoint" />
            <mxPoint x="-190" y="490" as="targetPoint" />
          </mxGeometry>
        </mxCell>
        <mxCell id="nhvX_3EtibqRzgdDVzNb-18" value="" style="endArrow=none;html=1;rounded=0;entryX=0.5;entryY=1;entryDx=0;entryDy=0;exitX=0;exitY=0.5;exitDx=0;exitDy=0;fontSize=16;" parent="1" edge="1">
          <mxGeometry width="50" height="50" relative="1" as="geometry">
            <mxPoint x="-365.48" y="525" as="sourcePoint" />
            <mxPoint x="-365.48" y="480" as="targetPoint" />
          </mxGeometry>
        </mxCell>
        <mxCell id="nhvX_3EtibqRzgdDVzNb-19" value="" style="endArrow=none;html=1;rounded=0;entryX=0.5;entryY=1;entryDx=0;entryDy=0;exitX=0;exitY=0.5;exitDx=0;exitDy=0;fontSize=16;" parent="1" edge="1">
          <mxGeometry width="50" height="50" relative="1" as="geometry">
            <mxPoint x="-485.48" y="525" as="sourcePoint" />
            <mxPoint x="-485.48" y="480" as="targetPoint" />
          </mxGeometry>
        </mxCell>
        <mxCell id="nhvX_3EtibqRzgdDVzNb-20" value="&lt;u style=&quot;font-size: 16px;&quot;&gt;FilmID&lt;/u&gt;" style="rhombus;whiteSpace=wrap;html=1;fontSize=16;" parent="1" vertex="1">
          <mxGeometry x="-700" y="400" width="80" height="80" as="geometry" />
        </mxCell>
        <mxCell id="nhvX_3EtibqRzgdDVzNb-21" value="" style="endArrow=none;html=1;rounded=0;entryX=0.5;entryY=1;entryDx=0;entryDy=0;exitX=0.5;exitY=0;exitDx=0;exitDy=0;fontSize=16;" parent="1" source="nhvX_3EtibqRzgdDVzNb-20" target="nhvX_3EtibqRzgdDVzNb-3" edge="1">
          <mxGeometry width="50" height="50" relative="1" as="geometry">
            <mxPoint x="-500" y="450" as="sourcePoint" />
            <mxPoint x="-450" y="400" as="targetPoint" />
          </mxGeometry>
        </mxCell>
        <mxCell id="nhvX_3EtibqRzgdDVzNb-31" value="Pontszám" style="ellipse;whiteSpace=wrap;html=1;fontSize=16;" parent="1" vertex="1">
          <mxGeometry x="250" y="420" width="90" height="60" as="geometry" />
        </mxCell>
        <mxCell id="nhvX_3EtibqRzgdDVzNb-32" value="Értékelések száma" style="ellipse;whiteSpace=wrap;html=1;fontSize=16;" parent="1" vertex="1">
          <mxGeometry x="370" y="420" width="105" height="70" as="geometry" />
        </mxCell>
        <mxCell id="nhvX_3EtibqRzgdDVzNb-33" value="Értékelés szövege" style="ellipse;whiteSpace=wrap;html=1;fontSize=16;" parent="1" vertex="1">
          <mxGeometry x="500" y="420" width="105" height="70" as="geometry" />
        </mxCell>
        <mxCell id="nhvX_3EtibqRzgdDVzNb-34" value="" style="rounded=0;whiteSpace=wrap;html=1;rotation=90;fontSize=16;" parent="1" vertex="1">
          <mxGeometry x="235" y="555" width="120" height="60" as="geometry" />
        </mxCell>
        <mxCell id="nhvX_3EtibqRzgdDVzNb-35" value="" style="rounded=0;whiteSpace=wrap;html=1;rotation=90;fontSize=16;" parent="1" vertex="1">
          <mxGeometry x="485" y="555" width="120" height="60" as="geometry" />
        </mxCell>
        <mxCell id="nhvX_3EtibqRzgdDVzNb-36" value="" style="rounded=0;whiteSpace=wrap;html=1;rotation=90;fontSize=16;" parent="1" vertex="1">
          <mxGeometry x="355" y="555" width="120" height="60" as="geometry" />
        </mxCell>
        <mxCell id="nhvX_3EtibqRzgdDVzNb-37" value="" style="endArrow=none;html=1;rounded=0;entryX=0.5;entryY=1;entryDx=0;entryDy=0;exitX=0;exitY=0.5;exitDx=0;exitDy=0;fontSize=16;" parent="1" source="nhvX_3EtibqRzgdDVzNb-35" target="nhvX_3EtibqRzgdDVzNb-33" edge="1">
          <mxGeometry width="50" height="50" relative="1" as="geometry">
            <mxPoint x="540" y="540" as="sourcePoint" />
            <mxPoint x="590" y="490" as="targetPoint" />
          </mxGeometry>
        </mxCell>
        <mxCell id="nhvX_3EtibqRzgdDVzNb-38" value="" style="endArrow=none;html=1;rounded=0;entryX=0.5;entryY=1;entryDx=0;entryDy=0;exitX=0;exitY=0.5;exitDx=0;exitDy=0;fontSize=16;" parent="1" edge="1">
          <mxGeometry width="50" height="50" relative="1" as="geometry">
            <mxPoint x="414.52" y="525" as="sourcePoint" />
            <mxPoint x="414.52" y="480" as="targetPoint" />
          </mxGeometry>
        </mxCell>
        <mxCell id="nhvX_3EtibqRzgdDVzNb-39" value="" style="endArrow=none;html=1;rounded=0;entryX=0.5;entryY=1;entryDx=0;entryDy=0;exitX=0;exitY=0.5;exitDx=0;exitDy=0;fontSize=16;" parent="1" edge="1">
          <mxGeometry width="50" height="50" relative="1" as="geometry">
            <mxPoint x="294.52" y="525" as="sourcePoint" />
            <mxPoint x="294.52" y="480" as="targetPoint" />
          </mxGeometry>
        </mxCell>
        <mxCell id="nhvX_3EtibqRzgdDVzNb-40" value="&lt;u style=&quot;font-size: 16px;&quot;&gt;ÉrtékelésID&lt;/u&gt;" style="rhombus;whiteSpace=wrap;html=1;fontSize=16;" parent="1" vertex="1">
          <mxGeometry x="80" y="400" width="110" height="110" as="geometry" />
        </mxCell>
        <mxCell id="nhvX_3EtibqRzgdDVzNb-41" value="" style="endArrow=none;html=1;rounded=0;entryX=0.5;entryY=1;entryDx=0;entryDy=0;exitX=0.5;exitY=0;exitDx=0;exitDy=0;fontSize=16;" parent="1" source="nhvX_3EtibqRzgdDVzNb-40" target="nhvX_3EtibqRzgdDVzNb-5" edge="1">
          <mxGeometry width="50" height="50" relative="1" as="geometry">
            <mxPoint x="130" y="470" as="sourcePoint" />
            <mxPoint x="180" y="420" as="targetPoint" />
          </mxGeometry>
        </mxCell>
        <mxCell id="nhvX_3EtibqRzgdDVzNb-42" value="" style="endArrow=none;html=1;rounded=0;entryX=0.5;entryY=1;entryDx=0;entryDy=0;exitX=0.5;exitY=0;exitDx=0;exitDy=0;fontSize=16;" parent="1" source="nhvX_3EtibqRzgdDVzNb-31" target="nhvX_3EtibqRzgdDVzNb-5" edge="1">
          <mxGeometry width="50" height="50" relative="1" as="geometry">
            <mxPoint x="130" y="470" as="sourcePoint" />
            <mxPoint x="180" y="420" as="targetPoint" />
          </mxGeometry>
        </mxCell>
        <mxCell id="nhvX_3EtibqRzgdDVzNb-43" value="" style="endArrow=none;html=1;rounded=0;entryX=0.5;entryY=1;entryDx=0;entryDy=0;exitX=0.5;exitY=0;exitDx=0;exitDy=0;fontSize=16;" parent="1" source="nhvX_3EtibqRzgdDVzNb-32" target="nhvX_3EtibqRzgdDVzNb-5" edge="1">
          <mxGeometry width="50" height="50" relative="1" as="geometry">
            <mxPoint x="130" y="470" as="sourcePoint" />
            <mxPoint x="180" y="420" as="targetPoint" />
          </mxGeometry>
        </mxCell>
        <mxCell id="nhvX_3EtibqRzgdDVzNb-44" value="" style="endArrow=none;html=1;rounded=0;exitX=0.5;exitY=0;exitDx=0;exitDy=0;fontSize=16;" parent="1" source="nhvX_3EtibqRzgdDVzNb-33" edge="1">
          <mxGeometry width="50" height="50" relative="1" as="geometry">
            <mxPoint x="130" y="470" as="sourcePoint" />
            <mxPoint x="400" y="320" as="targetPoint" />
          </mxGeometry>
        </mxCell>
        <mxCell id="nhvX_3EtibqRzgdDVzNb-90" value="KATEGÓRIA" style="ellipse;whiteSpace=wrap;html=1;fontSize=16;" parent="1" vertex="1">
          <mxGeometry x="1230" y="240" width="120" height="80" as="geometry" />
        </mxCell>
        <mxCell id="nhvX_3EtibqRzgdDVzNb-91" value="Név" style="ellipse;whiteSpace=wrap;html=1;fontSize=16;" parent="1" vertex="1">
          <mxGeometry x="1175" y="420" width="90" height="60" as="geometry" />
        </mxCell>
        <mxCell id="nhvX_3EtibqRzgdDVzNb-92" value="Leírás" style="ellipse;whiteSpace=wrap;html=1;fontSize=16;" parent="1" vertex="1">
          <mxGeometry x="1295" y="420" width="90" height="60" as="geometry" />
        </mxCell>
        <mxCell id="nhvX_3EtibqRzgdDVzNb-94" value="" style="rounded=0;whiteSpace=wrap;html=1;rotation=90;fontSize=16;" parent="1" vertex="1">
          <mxGeometry x="1160" y="555" width="120" height="60" as="geometry" />
        </mxCell>
        <mxCell id="nhvX_3EtibqRzgdDVzNb-96" value="" style="rounded=0;whiteSpace=wrap;html=1;rotation=90;fontSize=16;" parent="1" vertex="1">
          <mxGeometry x="1280" y="555" width="120" height="60" as="geometry" />
        </mxCell>
        <mxCell id="nhvX_3EtibqRzgdDVzNb-98" value="" style="endArrow=none;html=1;rounded=0;entryX=0.5;entryY=1;entryDx=0;entryDy=0;exitX=0;exitY=0.5;exitDx=0;exitDy=0;fontSize=16;" parent="1" edge="1">
          <mxGeometry width="50" height="50" relative="1" as="geometry">
            <mxPoint x="1339.52" y="525" as="sourcePoint" />
            <mxPoint x="1339.52" y="480" as="targetPoint" />
          </mxGeometry>
        </mxCell>
        <mxCell id="nhvX_3EtibqRzgdDVzNb-99" value="" style="endArrow=none;html=1;rounded=0;entryX=0.5;entryY=1;entryDx=0;entryDy=0;exitX=0;exitY=0.5;exitDx=0;exitDy=0;fontSize=16;" parent="1" edge="1">
          <mxGeometry width="50" height="50" relative="1" as="geometry">
            <mxPoint x="1219.52" y="525" as="sourcePoint" />
            <mxPoint x="1219.52" y="480" as="targetPoint" />
          </mxGeometry>
        </mxCell>
        <mxCell id="nhvX_3EtibqRzgdDVzNb-100" value="&lt;u style=&quot;font-size: 16px;&quot;&gt;KategóriaID&lt;/u&gt;" style="rhombus;whiteSpace=wrap;html=1;fontSize=16;" parent="1" vertex="1">
          <mxGeometry x="990" y="395" width="110" height="110" as="geometry" />
        </mxCell>
        <mxCell id="nhvX_3EtibqRzgdDVzNb-101" value="" style="endArrow=none;html=1;rounded=0;entryX=0.5;entryY=1;entryDx=0;entryDy=0;exitX=1;exitY=0.5;exitDx=0;exitDy=0;fontSize=16;" parent="1" source="nhvX_3EtibqRzgdDVzNb-100" target="nhvX_3EtibqRzgdDVzNb-90" edge="1">
          <mxGeometry width="50" height="50" relative="1" as="geometry">
            <mxPoint x="1020" y="470" as="sourcePoint" />
            <mxPoint x="1070" y="420" as="targetPoint" />
          </mxGeometry>
        </mxCell>
        <mxCell id="nhvX_3EtibqRzgdDVzNb-102" value="" style="endArrow=none;html=1;rounded=0;entryX=0.5;entryY=1;entryDx=0;entryDy=0;exitX=0.5;exitY=0;exitDx=0;exitDy=0;fontSize=16;" parent="1" source="nhvX_3EtibqRzgdDVzNb-91" target="nhvX_3EtibqRzgdDVzNb-90" edge="1">
          <mxGeometry width="50" height="50" relative="1" as="geometry">
            <mxPoint x="1020" y="470" as="sourcePoint" />
            <mxPoint x="1070" y="420" as="targetPoint" />
          </mxGeometry>
        </mxCell>
        <mxCell id="nhvX_3EtibqRzgdDVzNb-103" value="" style="endArrow=none;html=1;rounded=0;entryX=0.5;entryY=1;entryDx=0;entryDy=0;exitX=0.5;exitY=0;exitDx=0;exitDy=0;fontSize=16;" parent="1" source="nhvX_3EtibqRzgdDVzNb-92" target="nhvX_3EtibqRzgdDVzNb-90" edge="1">
          <mxGeometry width="50" height="50" relative="1" as="geometry">
            <mxPoint x="1020" y="470" as="sourcePoint" />
            <mxPoint x="1070" y="420" as="targetPoint" />
          </mxGeometry>
        </mxCell>
        <mxCell id="nhvX_3EtibqRzgdDVzNb-105" value="" style="ellipse;whiteSpace=wrap;html=1;fontSize=16;" parent="1" vertex="1">
          <mxGeometry x="2100" y="240" width="120" height="80" as="geometry" />
        </mxCell>
        <mxCell id="nhvX_3EtibqRzgdDVzNb-106" value="Felhasználó név" style="ellipse;whiteSpace=wrap;html=1;fontSize=16;" parent="1" vertex="1">
          <mxGeometry x="2010" y="420" width="90" height="60" as="geometry" />
        </mxCell>
        <mxCell id="nhvX_3EtibqRzgdDVzNb-107" value="Születési dátum" style="ellipse;whiteSpace=wrap;html=1;fontSize=16;" parent="1" vertex="1">
          <mxGeometry x="2130" y="420" width="90" height="60" as="geometry" />
        </mxCell>
        <mxCell id="nhvX_3EtibqRzgdDVzNb-108" value="Email-cím" style="ellipse;whiteSpace=wrap;html=1;fontSize=16;" parent="1" vertex="1">
          <mxGeometry x="2260" y="420" width="90" height="60" as="geometry" />
        </mxCell>
        <mxCell id="nhvX_3EtibqRzgdDVzNb-109" value="" style="rounded=0;whiteSpace=wrap;html=1;rotation=90;fontSize=16;" parent="1" vertex="1">
          <mxGeometry x="1995" y="555" width="120" height="60" as="geometry" />
        </mxCell>
        <mxCell id="nhvX_3EtibqRzgdDVzNb-110" value="" style="rounded=0;whiteSpace=wrap;html=1;rotation=90;fontSize=16;" parent="1" vertex="1">
          <mxGeometry x="2245" y="555" width="120" height="60" as="geometry" />
        </mxCell>
        <mxCell id="nhvX_3EtibqRzgdDVzNb-111" value="" style="rounded=0;whiteSpace=wrap;html=1;rotation=90;fontSize=16;" parent="1" vertex="1">
          <mxGeometry x="2115" y="555" width="120" height="60" as="geometry" />
        </mxCell>
        <mxCell id="nhvX_3EtibqRzgdDVzNb-112" value="" style="endArrow=none;html=1;rounded=0;entryX=0.5;entryY=1;entryDx=0;entryDy=0;exitX=0;exitY=0.5;exitDx=0;exitDy=0;fontSize=16;" parent="1" source="nhvX_3EtibqRzgdDVzNb-110" target="nhvX_3EtibqRzgdDVzNb-108" edge="1">
          <mxGeometry width="50" height="50" relative="1" as="geometry">
            <mxPoint x="2300" y="540" as="sourcePoint" />
            <mxPoint x="2350" y="490" as="targetPoint" />
          </mxGeometry>
        </mxCell>
        <mxCell id="nhvX_3EtibqRzgdDVzNb-113" value="" style="endArrow=none;html=1;rounded=0;entryX=0.5;entryY=1;entryDx=0;entryDy=0;exitX=0;exitY=0.5;exitDx=0;exitDy=0;fontSize=16;" parent="1" edge="1">
          <mxGeometry width="50" height="50" relative="1" as="geometry">
            <mxPoint x="2174.52" y="525" as="sourcePoint" />
            <mxPoint x="2174.52" y="480" as="targetPoint" />
          </mxGeometry>
        </mxCell>
        <mxCell id="nhvX_3EtibqRzgdDVzNb-114" value="" style="endArrow=none;html=1;rounded=0;entryX=0.5;entryY=1;entryDx=0;entryDy=0;exitX=0;exitY=0.5;exitDx=0;exitDy=0;fontSize=16;" parent="1" edge="1">
          <mxGeometry width="50" height="50" relative="1" as="geometry">
            <mxPoint x="2054.52" y="525" as="sourcePoint" />
            <mxPoint x="2054.52" y="480" as="targetPoint" />
          </mxGeometry>
        </mxCell>
        <mxCell id="nhvX_3EtibqRzgdDVzNb-115" value="&lt;u style=&quot;font-size: 16px;&quot;&gt;FelhasználóID&lt;/u&gt;" style="rhombus;whiteSpace=wrap;html=1;fontSize=16;" parent="1" vertex="1">
          <mxGeometry x="1840" y="385" width="120" height="120" as="geometry" />
        </mxCell>
        <mxCell id="nhvX_3EtibqRzgdDVzNb-116" value="" style="endArrow=none;html=1;rounded=0;entryX=0.5;entryY=1;entryDx=0;entryDy=0;exitX=0.5;exitY=0;exitDx=0;exitDy=0;fontSize=16;" parent="1" source="nhvX_3EtibqRzgdDVzNb-115" target="nhvX_3EtibqRzgdDVzNb-105" edge="1">
          <mxGeometry width="50" height="50" relative="1" as="geometry">
            <mxPoint x="1890" y="470" as="sourcePoint" />
            <mxPoint x="1940" y="420" as="targetPoint" />
          </mxGeometry>
        </mxCell>
        <mxCell id="nhvX_3EtibqRzgdDVzNb-117" value="" style="endArrow=none;html=1;rounded=0;entryX=0.5;entryY=1;entryDx=0;entryDy=0;exitX=0.5;exitY=0;exitDx=0;exitDy=0;fontSize=16;" parent="1" source="nhvX_3EtibqRzgdDVzNb-106" target="nhvX_3EtibqRzgdDVzNb-105" edge="1">
          <mxGeometry width="50" height="50" relative="1" as="geometry">
            <mxPoint x="1890" y="470" as="sourcePoint" />
            <mxPoint x="1940" y="420" as="targetPoint" />
          </mxGeometry>
        </mxCell>
        <mxCell id="nhvX_3EtibqRzgdDVzNb-118" value="" style="endArrow=none;html=1;rounded=0;entryX=0.5;entryY=1;entryDx=0;entryDy=0;exitX=0.5;exitY=0;exitDx=0;exitDy=0;fontSize=16;" parent="1" source="nhvX_3EtibqRzgdDVzNb-107" target="nhvX_3EtibqRzgdDVzNb-105" edge="1">
          <mxGeometry width="50" height="50" relative="1" as="geometry">
            <mxPoint x="1890" y="470" as="sourcePoint" />
            <mxPoint x="1940" y="420" as="targetPoint" />
          </mxGeometry>
        </mxCell>
        <mxCell id="nhvX_3EtibqRzgdDVzNb-119" value="" style="endArrow=none;html=1;rounded=0;exitX=0.5;exitY=0;exitDx=0;exitDy=0;fontSize=16;" parent="1" source="nhvX_3EtibqRzgdDVzNb-108" edge="1">
          <mxGeometry width="50" height="50" relative="1" as="geometry">
            <mxPoint x="1890" y="470" as="sourcePoint" />
            <mxPoint x="2160" y="320" as="targetPoint" />
          </mxGeometry>
        </mxCell>
        <mxCell id="nhvX_3EtibqRzgdDVzNb-120" value="SZÍNÉSZ" style="ellipse;whiteSpace=wrap;html=1;fontSize=16;" parent="1" vertex="1">
          <mxGeometry x="2970" y="240" width="120" height="80" as="geometry" />
        </mxCell>
        <mxCell id="nhvX_3EtibqRzgdDVzNb-121" value="Név" style="ellipse;whiteSpace=wrap;html=1;fontSize=16;" parent="1" vertex="1">
          <mxGeometry x="2880" y="420" width="90" height="60" as="geometry" />
        </mxCell>
        <mxCell id="nhvX_3EtibqRzgdDVzNb-122" value="Születési dátum" style="ellipse;whiteSpace=wrap;html=1;fontSize=16;" parent="1" vertex="1">
          <mxGeometry x="3000" y="420" width="90" height="60" as="geometry" />
        </mxCell>
        <mxCell id="nhvX_3EtibqRzgdDVzNb-123" value="Születési hely" style="ellipse;whiteSpace=wrap;html=1;fontSize=16;" parent="1" vertex="1">
          <mxGeometry x="3130" y="420" width="90" height="60" as="geometry" />
        </mxCell>
        <mxCell id="nhvX_3EtibqRzgdDVzNb-124" value="" style="rounded=0;whiteSpace=wrap;html=1;rotation=90;fontSize=16;" parent="1" vertex="1">
          <mxGeometry x="2865" y="555" width="120" height="60" as="geometry" />
        </mxCell>
        <mxCell id="nhvX_3EtibqRzgdDVzNb-125" value="" style="rounded=0;whiteSpace=wrap;html=1;rotation=90;fontSize=16;" parent="1" vertex="1">
          <mxGeometry x="3115" y="555" width="120" height="60" as="geometry" />
        </mxCell>
        <mxCell id="nhvX_3EtibqRzgdDVzNb-218" value="" style="edgeStyle=orthogonalEdgeStyle;rounded=0;orthogonalLoop=1;jettySize=auto;html=1;" parent="1" source="nhvX_3EtibqRzgdDVzNb-126" target="nhvX_3EtibqRzgdDVzNb-122" edge="1">
          <mxGeometry relative="1" as="geometry" />
        </mxCell>
        <mxCell id="nhvX_3EtibqRzgdDVzNb-126" value="" style="rounded=0;whiteSpace=wrap;html=1;rotation=90;fontSize=16;" parent="1" vertex="1">
          <mxGeometry x="2985" y="555" width="120" height="60" as="geometry" />
        </mxCell>
        <mxCell id="nhvX_3EtibqRzgdDVzNb-127" value="" style="endArrow=none;html=1;rounded=0;entryX=0.5;entryY=1;entryDx=0;entryDy=0;exitX=0;exitY=0.5;exitDx=0;exitDy=0;fontSize=16;" parent="1" source="nhvX_3EtibqRzgdDVzNb-125" target="nhvX_3EtibqRzgdDVzNb-123" edge="1">
          <mxGeometry width="50" height="50" relative="1" as="geometry">
            <mxPoint x="3170" y="540" as="sourcePoint" />
            <mxPoint x="3220" y="490" as="targetPoint" />
          </mxGeometry>
        </mxCell>
        <mxCell id="nhvX_3EtibqRzgdDVzNb-128" value="" style="endArrow=none;html=1;rounded=0;entryX=0.5;entryY=1;entryDx=0;entryDy=0;exitX=0;exitY=0.5;exitDx=0;exitDy=0;fontSize=16;" parent="1" edge="1">
          <mxGeometry width="50" height="50" relative="1" as="geometry">
            <mxPoint x="3044.52" y="525" as="sourcePoint" />
            <mxPoint x="3044.52" y="480" as="targetPoint" />
          </mxGeometry>
        </mxCell>
        <mxCell id="nhvX_3EtibqRzgdDVzNb-129" value="" style="endArrow=none;html=1;rounded=0;entryX=0.5;entryY=1;entryDx=0;entryDy=0;exitX=0;exitY=0.5;exitDx=0;exitDy=0;fontSize=16;" parent="1" edge="1">
          <mxGeometry width="50" height="50" relative="1" as="geometry">
            <mxPoint x="2924.52" y="525" as="sourcePoint" />
            <mxPoint x="2924.52" y="480" as="targetPoint" />
          </mxGeometry>
        </mxCell>
        <mxCell id="nhvX_3EtibqRzgdDVzNb-130" value="&lt;u style=&quot;border-color: var(--border-color);&quot;&gt;SzínészID&lt;/u&gt;" style="rhombus;whiteSpace=wrap;html=1;fontSize=16;" parent="1" vertex="1">
          <mxGeometry x="2739.16" y="400" width="90" height="90" as="geometry" />
        </mxCell>
        <mxCell id="nhvX_3EtibqRzgdDVzNb-131" value="" style="endArrow=none;html=1;rounded=0;entryX=0.5;entryY=1;entryDx=0;entryDy=0;exitX=0.5;exitY=0;exitDx=0;exitDy=0;fontSize=16;" parent="1" source="nhvX_3EtibqRzgdDVzNb-130" target="nhvX_3EtibqRzgdDVzNb-120" edge="1">
          <mxGeometry width="50" height="50" relative="1" as="geometry">
            <mxPoint x="2760" y="470" as="sourcePoint" />
            <mxPoint x="2810" y="420" as="targetPoint" />
          </mxGeometry>
        </mxCell>
        <mxCell id="nhvX_3EtibqRzgdDVzNb-132" value="" style="endArrow=none;html=1;rounded=0;entryX=0.5;entryY=1;entryDx=0;entryDy=0;exitX=0.5;exitY=0;exitDx=0;exitDy=0;fontSize=16;" parent="1" source="nhvX_3EtibqRzgdDVzNb-121" target="nhvX_3EtibqRzgdDVzNb-120" edge="1">
          <mxGeometry width="50" height="50" relative="1" as="geometry">
            <mxPoint x="2760" y="470" as="sourcePoint" />
            <mxPoint x="2810" y="420" as="targetPoint" />
          </mxGeometry>
        </mxCell>
        <mxCell id="nhvX_3EtibqRzgdDVzNb-133" value="" style="endArrow=none;html=1;rounded=0;entryX=0.5;entryY=1;entryDx=0;entryDy=0;exitX=0.5;exitY=0;exitDx=0;exitDy=0;fontSize=16;" parent="1" source="nhvX_3EtibqRzgdDVzNb-122" target="nhvX_3EtibqRzgdDVzNb-120" edge="1">
          <mxGeometry width="50" height="50" relative="1" as="geometry">
            <mxPoint x="2760" y="470" as="sourcePoint" />
            <mxPoint x="2810" y="420" as="targetPoint" />
          </mxGeometry>
        </mxCell>
        <mxCell id="nhvX_3EtibqRzgdDVzNb-134" value="" style="endArrow=none;html=1;rounded=0;exitX=0.5;exitY=0;exitDx=0;exitDy=0;fontSize=16;" parent="1" source="nhvX_3EtibqRzgdDVzNb-123" edge="1">
          <mxGeometry width="50" height="50" relative="1" as="geometry">
            <mxPoint x="2760" y="470" as="sourcePoint" />
            <mxPoint x="3030" y="320" as="targetPoint" />
          </mxGeometry>
        </mxCell>
        <mxCell id="nhvX_3EtibqRzgdDVzNb-138" value="" style="endArrow=none;html=1;rounded=0;exitX=0.5;exitY=0;exitDx=0;exitDy=0;entryX=0.5;entryY=1;entryDx=0;entryDy=0;fontSize=16;" parent="1" source="nhvX_3EtibqRzgdDVzNb-3" target="nhvX_3EtibqRzgdDVzNb-2" edge="1">
          <mxGeometry width="50" height="50" relative="1" as="geometry">
            <mxPoint x="500" y="250" as="sourcePoint" />
            <mxPoint x="550" y="200" as="targetPoint" />
          </mxGeometry>
        </mxCell>
        <mxCell id="nhvX_3EtibqRzgdDVzNb-139" value="" style="endArrow=none;html=1;rounded=0;exitX=0.5;exitY=0;exitDx=0;exitDy=0;entryX=0.5;entryY=1;entryDx=0;entryDy=0;fontSize=16;" parent="1" source="nhvX_3EtibqRzgdDVzNb-5" target="nhvX_3EtibqRzgdDVzNb-2" edge="1">
          <mxGeometry width="50" height="50" relative="1" as="geometry">
            <mxPoint x="500" y="250" as="sourcePoint" />
            <mxPoint x="550" y="200" as="targetPoint" />
          </mxGeometry>
        </mxCell>
        <mxCell id="nhvX_3EtibqRzgdDVzNb-140" value="" style="endArrow=none;html=1;rounded=0;exitX=0.5;exitY=0;exitDx=0;exitDy=0;entryX=0.5;entryY=1;entryDx=0;entryDy=0;fontSize=16;" parent="1" source="nhvX_3EtibqRzgdDVzNb-90" target="nhvX_3EtibqRzgdDVzNb-2" edge="1">
          <mxGeometry width="50" height="50" relative="1" as="geometry">
            <mxPoint x="500" y="250" as="sourcePoint" />
            <mxPoint x="1190" y="-120" as="targetPoint" />
          </mxGeometry>
        </mxCell>
        <mxCell id="nhvX_3EtibqRzgdDVzNb-141" value="" style="endArrow=none;html=1;rounded=0;exitX=0.5;exitY=0;exitDx=0;exitDy=0;entryX=0.5;entryY=1;entryDx=0;entryDy=0;fontSize=16;" parent="1" source="nhvX_3EtibqRzgdDVzNb-105" target="nhvX_3EtibqRzgdDVzNb-2" edge="1">
          <mxGeometry width="50" height="50" relative="1" as="geometry">
            <mxPoint x="1680" y="130" as="sourcePoint" />
            <mxPoint x="1350" y="-110" as="targetPoint" />
          </mxGeometry>
        </mxCell>
        <mxCell id="nhvX_3EtibqRzgdDVzNb-142" value="" style="endArrow=none;html=1;rounded=0;entryX=0.5;entryY=1;entryDx=0;entryDy=0;exitX=0.5;exitY=0;exitDx=0;exitDy=0;fontSize=16;" parent="1" source="nhvX_3EtibqRzgdDVzNb-120" target="nhvX_3EtibqRzgdDVzNb-2" edge="1">
          <mxGeometry width="50" height="50" relative="1" as="geometry">
            <mxPoint x="1710" y="130" as="sourcePoint" />
            <mxPoint x="1760" y="80" as="targetPoint" />
          </mxGeometry>
        </mxCell>
        <mxCell id="nhvX_3EtibqRzgdDVzNb-147" style="edgeStyle=orthogonalEdgeStyle;rounded=0;orthogonalLoop=1;jettySize=auto;html=1;exitX=0.5;exitY=1;exitDx=0;exitDy=0;entryX=1;entryY=1;entryDx=0;entryDy=0;" parent="1" source="nhvX_3EtibqRzgdDVzNb-144" target="nhvX_3EtibqRzgdDVzNb-20" edge="1">
          <mxGeometry relative="1" as="geometry">
            <mxPoint x="-620" y="440" as="targetPoint" />
            <Array as="points">
              <mxPoint x="-25" y="750" />
              <mxPoint x="-640" y="750" />
            </Array>
          </mxGeometry>
        </mxCell>
        <mxCell id="nhvX_3EtibqRzgdDVzNb-144" value="&lt;font style=&quot;font-size: 16px;&quot;&gt;ÉRTÉKEL&lt;/font&gt;" style="rhombus;whiteSpace=wrap;html=1;" parent="1" vertex="1">
          <mxGeometry x="-80" y="275" width="110" height="110" as="geometry" />
        </mxCell>
        <mxCell id="nhvX_3EtibqRzgdDVzNb-145" value="" style="endArrow=none;html=1;rounded=0;entryX=0.5;entryY=1;entryDx=0;entryDy=0;exitX=1;exitY=0.5;exitDx=0;exitDy=0;" parent="1" source="nhvX_3EtibqRzgdDVzNb-144" target="nhvX_3EtibqRzgdDVzNb-5" edge="1">
          <mxGeometry width="50" height="50" relative="1" as="geometry">
            <mxPoint x="-10" y="510" as="sourcePoint" />
            <mxPoint x="40" y="460" as="targetPoint" />
          </mxGeometry>
        </mxCell>
        <mxCell id="nhvX_3EtibqRzgdDVzNb-149" value="" style="ellipse;whiteSpace=wrap;html=1;fillStyle=solid;fillColor=none;" parent="1" vertex="1">
          <mxGeometry x="-420" y="267.90999999999997" width="100" height="66.67" as="geometry" />
        </mxCell>
        <mxCell id="nhvX_3EtibqRzgdDVzNb-150" value="" style="ellipse;whiteSpace=wrap;html=1;fillStyle=solid;fillColor=none;" parent="1" vertex="1">
          <mxGeometry x="350" y="246.65999999999997" width="100" height="66.67" as="geometry" />
        </mxCell>
        <mxCell id="nhvX_3EtibqRzgdDVzNb-151" value="" style="ellipse;whiteSpace=wrap;html=1;fillStyle=solid;fillColor=none;" parent="1" vertex="1">
          <mxGeometry x="1240" y="246.67" width="100" height="66.67" as="geometry" />
        </mxCell>
        <mxCell id="nhvX_3EtibqRzgdDVzNb-153" value="" style="ellipse;whiteSpace=wrap;html=1;fillStyle=solid;fillColor=none;" parent="1" vertex="1">
          <mxGeometry x="2980" y="246.65999999999994" width="100" height="66.67" as="geometry" />
        </mxCell>
        <mxCell id="nhvX_3EtibqRzgdDVzNb-156" value="TARTOZIK" style="ellipse;whiteSpace=wrap;html=1;fontSize=16;" parent="1" vertex="1">
          <mxGeometry x="790" y="233.34" width="120" height="80" as="geometry" />
        </mxCell>
        <mxCell id="nhvX_3EtibqRzgdDVzNb-157" value="" style="ellipse;whiteSpace=wrap;html=1;fillStyle=solid;fillColor=none;" parent="1" vertex="1">
          <mxGeometry x="800" y="239.99999999999997" width="100" height="66.67" as="geometry" />
        </mxCell>
        <mxCell id="nhvX_3EtibqRzgdDVzNb-161" style="edgeStyle=orthogonalEdgeStyle;rounded=0;orthogonalLoop=1;jettySize=auto;html=1;exitX=0.5;exitY=1;exitDx=0;exitDy=0;entryX=0.5;entryY=0;entryDx=0;entryDy=0;" parent="1" source="nhvX_3EtibqRzgdDVzNb-158" target="nhvX_3EtibqRzgdDVzNb-100" edge="1">
          <mxGeometry relative="1" as="geometry" />
        </mxCell>
        <mxCell id="nhvX_3EtibqRzgdDVzNb-158" value="&lt;font style=&quot;font-size: 16px;&quot;&gt;TART_KAT&lt;/font&gt;" style="rhombus;whiteSpace=wrap;html=1;" parent="1" vertex="1">
          <mxGeometry x="991.6700000000001" y="219.17" width="108.33" height="108.33" as="geometry" />
        </mxCell>
        <mxCell id="nhvX_3EtibqRzgdDVzNb-159" value="" style="endArrow=none;html=1;rounded=0;entryX=1;entryY=0.5;entryDx=0;entryDy=0;exitX=0;exitY=0.5;exitDx=0;exitDy=0;" parent="1" source="nhvX_3EtibqRzgdDVzNb-158" target="nhvX_3EtibqRzgdDVzNb-156" edge="1">
          <mxGeometry width="50" height="50" relative="1" as="geometry">
            <mxPoint x="870" y="350" as="sourcePoint" />
            <mxPoint x="920" y="300" as="targetPoint" />
          </mxGeometry>
        </mxCell>
        <mxCell id="nhvX_3EtibqRzgdDVzNb-163" style="edgeStyle=orthogonalEdgeStyle;rounded=0;orthogonalLoop=1;jettySize=auto;html=1;exitX=0.5;exitY=1;exitDx=0;exitDy=0;entryX=0.5;entryY=1;entryDx=0;entryDy=0;" parent="1" source="nhvX_3EtibqRzgdDVzNb-162" target="nhvX_3EtibqRzgdDVzNb-20" edge="1">
          <mxGeometry relative="1" as="geometry">
            <mxPoint x="50" y="800" as="targetPoint" />
            <Array as="points">
              <mxPoint x="663" y="780" />
              <mxPoint x="-660" y="780" />
            </Array>
          </mxGeometry>
        </mxCell>
        <mxCell id="nhvX_3EtibqRzgdDVzNb-162" value="&lt;font style=&quot;font-size: 16px;&quot;&gt;TART_FILM&lt;/font&gt;" style="rhombus;whiteSpace=wrap;html=1;" parent="1" vertex="1">
          <mxGeometry x="610" y="220.84" width="106.66" height="106.66" as="geometry" />
        </mxCell>
        <mxCell id="nhvX_3EtibqRzgdDVzNb-164" value="" style="endArrow=none;html=1;rounded=0;entryX=0;entryY=0.5;entryDx=0;entryDy=0;exitX=1;exitY=0.5;exitDx=0;exitDy=0;" parent="1" source="nhvX_3EtibqRzgdDVzNb-162" target="nhvX_3EtibqRzgdDVzNb-156" edge="1">
          <mxGeometry width="50" height="50" relative="1" as="geometry">
            <mxPoint x="350" y="430" as="sourcePoint" />
            <mxPoint x="400" y="380" as="targetPoint" />
          </mxGeometry>
        </mxCell>
        <mxCell id="nhvX_3EtibqRzgdDVzNb-166" value="MEGTEKINTI" style="ellipse;whiteSpace=wrap;html=1;fontSize=16;" parent="1" vertex="1">
          <mxGeometry x="1670" y="223.34" width="120" height="80" as="geometry" />
        </mxCell>
        <mxCell id="nhvX_3EtibqRzgdDVzNb-167" value="" style="ellipse;whiteSpace=wrap;html=1;fillStyle=solid;fillColor=none;" parent="1" vertex="1">
          <mxGeometry x="1680" y="230" width="100" height="66.67" as="geometry" />
        </mxCell>
        <mxCell id="nhvX_3EtibqRzgdDVzNb-173" style="edgeStyle=orthogonalEdgeStyle;rounded=0;orthogonalLoop=1;jettySize=auto;html=1;exitX=0.5;exitY=1;exitDx=0;exitDy=0;entryX=0.5;entryY=0;entryDx=0;entryDy=0;" parent="1" source="nhvX_3EtibqRzgdDVzNb-169" target="nhvX_3EtibqRzgdDVzNb-115" edge="1">
          <mxGeometry relative="1" as="geometry" />
        </mxCell>
        <mxCell id="nhvX_3EtibqRzgdDVzNb-169" value="&lt;font size=&quot;3&quot;&gt;MEG_FLH&lt;/font&gt;" style="rhombus;whiteSpace=wrap;html=1;" parent="1" vertex="1">
          <mxGeometry x="1845.8400000000001" y="209.17" width="108.33" height="108.33" as="geometry" />
        </mxCell>
        <mxCell id="nhvX_3EtibqRzgdDVzNb-170" value="" style="endArrow=none;html=1;rounded=0;entryX=1;entryY=0.5;entryDx=0;entryDy=0;exitX=0;exitY=0.5;exitDx=0;exitDy=0;" parent="1" source="nhvX_3EtibqRzgdDVzNb-169" target="nhvX_3EtibqRzgdDVzNb-166" edge="1">
          <mxGeometry width="50" height="50" relative="1" as="geometry">
            <mxPoint x="1750" y="340" as="sourcePoint" />
            <mxPoint x="1800" y="290" as="targetPoint" />
          </mxGeometry>
        </mxCell>
        <mxCell id="nhvX_3EtibqRzgdDVzNb-171" value="&lt;font style=&quot;font-size: 16px;&quot;&gt;MEG_FLM&lt;/font&gt;" style="rhombus;whiteSpace=wrap;html=1;" parent="1" vertex="1">
          <mxGeometry x="1490" y="210.84" width="106.66" height="106.66" as="geometry" />
        </mxCell>
        <mxCell id="nhvX_3EtibqRzgdDVzNb-172" value="" style="endArrow=none;html=1;rounded=0;entryX=0;entryY=0.5;entryDx=0;entryDy=0;exitX=1;exitY=0.5;exitDx=0;exitDy=0;" parent="1" source="nhvX_3EtibqRzgdDVzNb-171" target="nhvX_3EtibqRzgdDVzNb-166" edge="1">
          <mxGeometry width="50" height="50" relative="1" as="geometry">
            <mxPoint x="1230" y="420" as="sourcePoint" />
            <mxPoint x="1280" y="370" as="targetPoint" />
          </mxGeometry>
        </mxCell>
        <mxCell id="nhvX_3EtibqRzgdDVzNb-174" style="edgeStyle=orthogonalEdgeStyle;rounded=0;orthogonalLoop=1;jettySize=auto;html=1;exitX=0.5;exitY=1;exitDx=0;exitDy=0;entryX=0;entryY=1;entryDx=0;entryDy=0;" parent="1" source="nhvX_3EtibqRzgdDVzNb-171" target="nhvX_3EtibqRzgdDVzNb-20" edge="1">
          <mxGeometry relative="1" as="geometry">
            <Array as="points">
              <mxPoint x="1543" y="810" />
              <mxPoint x="-680" y="810" />
            </Array>
          </mxGeometry>
        </mxCell>
        <mxCell id="nhvX_3EtibqRzgdDVzNb-175" value="&lt;u&gt;&lt;font style=&quot;font-size: 16px;&quot;&gt;TARTOZIKID&lt;/font&gt;&lt;/u&gt;" style="rhombus;whiteSpace=wrap;html=1;" parent="1" vertex="1">
          <mxGeometry x="716.66" y="392.5" width="105" height="105" as="geometry" />
        </mxCell>
        <mxCell id="nhvX_3EtibqRzgdDVzNb-176" value="&lt;font style=&quot;font-size: 16px;&quot;&gt;Kategóriák száma&lt;/font&gt;" style="ellipse;whiteSpace=wrap;html=1;" parent="1" vertex="1">
          <mxGeometry x="850" y="407.5" width="120" height="80" as="geometry" />
        </mxCell>
        <mxCell id="nhvX_3EtibqRzgdDVzNb-178" value="" style="endArrow=none;html=1;rounded=0;entryX=0.5;entryY=1;entryDx=0;entryDy=0;exitX=0.5;exitY=0;exitDx=0;exitDy=0;" parent="1" source="nhvX_3EtibqRzgdDVzNb-175" target="nhvX_3EtibqRzgdDVzNb-156" edge="1">
          <mxGeometry width="50" height="50" relative="1" as="geometry">
            <mxPoint x="900" y="470" as="sourcePoint" />
            <mxPoint x="950" y="420" as="targetPoint" />
          </mxGeometry>
        </mxCell>
        <mxCell id="nhvX_3EtibqRzgdDVzNb-179" value="" style="endArrow=none;html=1;rounded=0;entryX=0.5;entryY=1;entryDx=0;entryDy=0;exitX=0.5;exitY=0;exitDx=0;exitDy=0;" parent="1" source="nhvX_3EtibqRzgdDVzNb-176" target="nhvX_3EtibqRzgdDVzNb-156" edge="1">
          <mxGeometry width="50" height="50" relative="1" as="geometry">
            <mxPoint x="900" y="470" as="sourcePoint" />
            <mxPoint x="950" y="420" as="targetPoint" />
          </mxGeometry>
        </mxCell>
        <mxCell id="nhvX_3EtibqRzgdDVzNb-180" value="SZEREPEL" style="ellipse;whiteSpace=wrap;html=1;fontSize=16;" parent="1" vertex="1">
          <mxGeometry x="2520" y="237.51" width="120" height="80" as="geometry" />
        </mxCell>
        <mxCell id="nhvX_3EtibqRzgdDVzNb-181" value="" style="ellipse;whiteSpace=wrap;html=1;fillStyle=solid;fillColor=none;" parent="1" vertex="1">
          <mxGeometry x="2530" y="244.18" width="100" height="66.67" as="geometry" />
        </mxCell>
        <mxCell id="nhvX_3EtibqRzgdDVzNb-187" style="edgeStyle=orthogonalEdgeStyle;rounded=0;orthogonalLoop=1;jettySize=auto;html=1;exitX=0.5;exitY=1;exitDx=0;exitDy=0;entryX=0.5;entryY=0;entryDx=0;entryDy=0;" parent="1" source="nhvX_3EtibqRzgdDVzNb-183" target="nhvX_3EtibqRzgdDVzNb-130" edge="1">
          <mxGeometry relative="1" as="geometry" />
        </mxCell>
        <mxCell id="nhvX_3EtibqRzgdDVzNb-183" value="&lt;font size=&quot;3&quot;&gt;SZRP_SZÍ&lt;/font&gt;" style="rhombus;whiteSpace=wrap;html=1;" parent="1" vertex="1">
          <mxGeometry x="2730" y="223.33999999999997" width="108.33" height="108.33" as="geometry" />
        </mxCell>
        <mxCell id="nhvX_3EtibqRzgdDVzNb-184" value="" style="endArrow=none;html=1;rounded=0;entryX=1;entryY=0.5;entryDx=0;entryDy=0;exitX=0;exitY=0.5;exitDx=0;exitDy=0;" parent="1" source="nhvX_3EtibqRzgdDVzNb-183" target="nhvX_3EtibqRzgdDVzNb-180" edge="1">
          <mxGeometry width="50" height="50" relative="1" as="geometry">
            <mxPoint x="2600" y="354.17" as="sourcePoint" />
            <mxPoint x="2650" y="304.17" as="targetPoint" />
          </mxGeometry>
        </mxCell>
        <mxCell id="nhvX_3EtibqRzgdDVzNb-188" style="edgeStyle=orthogonalEdgeStyle;rounded=0;orthogonalLoop=1;jettySize=auto;html=1;exitX=0.5;exitY=1;exitDx=0;exitDy=0;entryX=0;entryY=0.5;entryDx=0;entryDy=0;" parent="1" source="nhvX_3EtibqRzgdDVzNb-185" target="nhvX_3EtibqRzgdDVzNb-20" edge="1">
          <mxGeometry relative="1" as="geometry">
            <Array as="points">
              <mxPoint x="2418" y="840" />
              <mxPoint x="-720" y="840" />
              <mxPoint x="-720" y="440" />
            </Array>
          </mxGeometry>
        </mxCell>
        <mxCell id="nhvX_3EtibqRzgdDVzNb-185" value="&lt;font style=&quot;font-size: 16px;&quot;&gt;SZRP_FLM&lt;/font&gt;" style="rhombus;whiteSpace=wrap;html=1;" parent="1" vertex="1">
          <mxGeometry x="2365" y="223.34" width="106.66" height="106.66" as="geometry" />
        </mxCell>
        <mxCell id="nhvX_3EtibqRzgdDVzNb-186" value="" style="endArrow=none;html=1;rounded=0;entryX=0;entryY=0.5;entryDx=0;entryDy=0;exitX=1;exitY=0.5;exitDx=0;exitDy=0;" parent="1" source="nhvX_3EtibqRzgdDVzNb-185" target="nhvX_3EtibqRzgdDVzNb-180" edge="1">
          <mxGeometry width="50" height="50" relative="1" as="geometry">
            <mxPoint x="2080" y="434.17" as="sourcePoint" />
            <mxPoint x="2130" y="384.17" as="targetPoint" />
          </mxGeometry>
        </mxCell>
        <mxCell id="nhvX_3EtibqRzgdDVzNb-189" value="" style="endArrow=none;html=1;rounded=0;exitX=0.5;exitY=0;exitDx=0;exitDy=0;entryX=0.5;entryY=1;entryDx=0;entryDy=0;" parent="1" source="nhvX_3EtibqRzgdDVzNb-156" target="nhvX_3EtibqRzgdDVzNb-2" edge="1">
          <mxGeometry width="50" height="50" relative="1" as="geometry">
            <mxPoint x="950" y="180" as="sourcePoint" />
            <mxPoint x="870" y="140" as="targetPoint" />
          </mxGeometry>
        </mxCell>
        <mxCell id="nhvX_3EtibqRzgdDVzNb-190" value="" style="endArrow=none;html=1;rounded=0;entryX=0.5;entryY=0;entryDx=0;entryDy=0;exitX=0.5;exitY=1;exitDx=0;exitDy=0;" parent="1" source="nhvX_3EtibqRzgdDVzNb-2" target="nhvX_3EtibqRzgdDVzNb-166" edge="1">
          <mxGeometry width="50" height="50" relative="1" as="geometry">
            <mxPoint x="1610" y="190" as="sourcePoint" />
            <mxPoint x="1740" y="200" as="targetPoint" />
          </mxGeometry>
        </mxCell>
        <mxCell id="nhvX_3EtibqRzgdDVzNb-192" value="DÍJ" style="ellipse;whiteSpace=wrap;html=1;fontSize=16;" parent="1" vertex="1">
          <mxGeometry x="4714.17" y="264.58" width="120" height="80" as="geometry" />
        </mxCell>
        <mxCell id="nhvX_3EtibqRzgdDVzNb-193" value="Díj típusa" style="ellipse;whiteSpace=wrap;html=1;fontSize=16;" parent="1" vertex="1">
          <mxGeometry x="4624.17" y="444.58" width="90" height="60" as="geometry" />
        </mxCell>
        <mxCell id="nhvX_3EtibqRzgdDVzNb-194" value="Feltételek" style="ellipse;whiteSpace=wrap;html=1;fontSize=16;" parent="1" vertex="1">
          <mxGeometry x="4744.17" y="444.58" width="90" height="60" as="geometry" />
        </mxCell>
        <mxCell id="nhvX_3EtibqRzgdDVzNb-195" value="Nyertesek" style="ellipse;whiteSpace=wrap;html=1;fontSize=16;" parent="1" vertex="1">
          <mxGeometry x="4874.17" y="444.58" width="90" height="60" as="geometry" />
        </mxCell>
        <mxCell id="nhvX_3EtibqRzgdDVzNb-196" value="" style="rounded=0;whiteSpace=wrap;html=1;rotation=90;fontSize=16;" parent="1" vertex="1">
          <mxGeometry x="4609.17" y="579.58" width="120" height="60" as="geometry" />
        </mxCell>
        <mxCell id="nhvX_3EtibqRzgdDVzNb-197" value="" style="rounded=0;whiteSpace=wrap;html=1;rotation=90;fontSize=16;" parent="1" vertex="1">
          <mxGeometry x="4859.17" y="579.58" width="120" height="60" as="geometry" />
        </mxCell>
        <mxCell id="nhvX_3EtibqRzgdDVzNb-198" value="" style="rounded=0;whiteSpace=wrap;html=1;rotation=90;fontSize=16;" parent="1" vertex="1">
          <mxGeometry x="4729.17" y="579.58" width="120" height="60" as="geometry" />
        </mxCell>
        <mxCell id="nhvX_3EtibqRzgdDVzNb-199" value="" style="endArrow=none;html=1;rounded=0;entryX=0.5;entryY=1;entryDx=0;entryDy=0;exitX=0;exitY=0.5;exitDx=0;exitDy=0;fontSize=16;" parent="1" source="nhvX_3EtibqRzgdDVzNb-197" target="nhvX_3EtibqRzgdDVzNb-195" edge="1">
          <mxGeometry width="50" height="50" relative="1" as="geometry">
            <mxPoint x="4914.17" y="564.58" as="sourcePoint" />
            <mxPoint x="4964.17" y="514.58" as="targetPoint" />
          </mxGeometry>
        </mxCell>
        <mxCell id="nhvX_3EtibqRzgdDVzNb-200" value="" style="endArrow=none;html=1;rounded=0;entryX=0.5;entryY=1;entryDx=0;entryDy=0;exitX=0;exitY=0.5;exitDx=0;exitDy=0;fontSize=16;" parent="1" edge="1">
          <mxGeometry width="50" height="50" relative="1" as="geometry">
            <mxPoint x="4788.69" y="549.58" as="sourcePoint" />
            <mxPoint x="4788.69" y="504.58" as="targetPoint" />
          </mxGeometry>
        </mxCell>
        <mxCell id="nhvX_3EtibqRzgdDVzNb-201" value="" style="endArrow=none;html=1;rounded=0;entryX=0.5;entryY=1;entryDx=0;entryDy=0;exitX=0;exitY=0.5;exitDx=0;exitDy=0;fontSize=16;" parent="1" edge="1">
          <mxGeometry width="50" height="50" relative="1" as="geometry">
            <mxPoint x="4668.69" y="549.58" as="sourcePoint" />
            <mxPoint x="4668.69" y="504.58" as="targetPoint" />
          </mxGeometry>
        </mxCell>
        <mxCell id="nhvX_3EtibqRzgdDVzNb-202" value="&lt;u style=&quot;font-size: 16px;&quot;&gt;DíjID&lt;/u&gt;" style="rhombus;whiteSpace=wrap;html=1;fontSize=16;" parent="1" vertex="1">
          <mxGeometry x="4454.17" y="424.58" width="90" height="90" as="geometry" />
        </mxCell>
        <mxCell id="nhvX_3EtibqRzgdDVzNb-203" value="" style="endArrow=none;html=1;rounded=0;entryX=0.5;entryY=1;entryDx=0;entryDy=0;exitX=0.5;exitY=0;exitDx=0;exitDy=0;fontSize=16;" parent="1" source="nhvX_3EtibqRzgdDVzNb-202" target="nhvX_3EtibqRzgdDVzNb-192" edge="1">
          <mxGeometry width="50" height="50" relative="1" as="geometry">
            <mxPoint x="4504.17" y="494.58" as="sourcePoint" />
            <mxPoint x="4554.17" y="444.58" as="targetPoint" />
          </mxGeometry>
        </mxCell>
        <mxCell id="nhvX_3EtibqRzgdDVzNb-204" value="" style="endArrow=none;html=1;rounded=0;entryX=0.5;entryY=1;entryDx=0;entryDy=0;exitX=0.5;exitY=0;exitDx=0;exitDy=0;fontSize=16;" parent="1" source="nhvX_3EtibqRzgdDVzNb-193" target="nhvX_3EtibqRzgdDVzNb-192" edge="1">
          <mxGeometry width="50" height="50" relative="1" as="geometry">
            <mxPoint x="4504.17" y="494.58" as="sourcePoint" />
            <mxPoint x="4554.17" y="444.58" as="targetPoint" />
          </mxGeometry>
        </mxCell>
        <mxCell id="nhvX_3EtibqRzgdDVzNb-205" value="" style="endArrow=none;html=1;rounded=0;entryX=0.5;entryY=1;entryDx=0;entryDy=0;exitX=0.5;exitY=0;exitDx=0;exitDy=0;fontSize=16;" parent="1" source="nhvX_3EtibqRzgdDVzNb-194" target="nhvX_3EtibqRzgdDVzNb-192" edge="1">
          <mxGeometry width="50" height="50" relative="1" as="geometry">
            <mxPoint x="4504.17" y="494.58" as="sourcePoint" />
            <mxPoint x="4554.17" y="444.58" as="targetPoint" />
          </mxGeometry>
        </mxCell>
        <mxCell id="nhvX_3EtibqRzgdDVzNb-206" value="" style="endArrow=none;html=1;rounded=0;exitX=0.5;exitY=0;exitDx=0;exitDy=0;fontSize=16;" parent="1" source="nhvX_3EtibqRzgdDVzNb-195" edge="1">
          <mxGeometry width="50" height="50" relative="1" as="geometry">
            <mxPoint x="4504.17" y="494.58" as="sourcePoint" />
            <mxPoint x="4774.17" y="344.58" as="targetPoint" />
          </mxGeometry>
        </mxCell>
        <mxCell id="nhvX_3EtibqRzgdDVzNb-207" value="" style="ellipse;whiteSpace=wrap;html=1;fillStyle=solid;fillColor=none;" parent="1" vertex="1">
          <mxGeometry x="4724.17" y="271.24" width="100" height="66.67" as="geometry" />
        </mxCell>
        <mxCell id="nhvX_3EtibqRzgdDVzNb-210" value="ELNYERI" style="ellipse;whiteSpace=wrap;html=1;fontSize=16;" parent="1" vertex="1">
          <mxGeometry x="4265.01" y="254.58" width="120" height="80" as="geometry" />
        </mxCell>
        <mxCell id="nhvX_3EtibqRzgdDVzNb-211" value="" style="ellipse;whiteSpace=wrap;html=1;fillStyle=solid;fillColor=none;" parent="1" vertex="1">
          <mxGeometry x="4275.01" y="260.41" width="100" height="66.67" as="geometry" />
        </mxCell>
        <mxCell id="nhvX_3EtibqRzgdDVzNb-216" style="edgeStyle=orthogonalEdgeStyle;rounded=0;orthogonalLoop=1;jettySize=auto;html=1;exitX=0.5;exitY=1;exitDx=0;exitDy=0;entryX=0.5;entryY=0;entryDx=0;entryDy=0;" parent="1" source="nhvX_3EtibqRzgdDVzNb-212" target="nhvX_3EtibqRzgdDVzNb-202" edge="1">
          <mxGeometry relative="1" as="geometry" />
        </mxCell>
        <mxCell id="nhvX_3EtibqRzgdDVzNb-212" value="&lt;font size=&quot;3&quot;&gt;ELNY_Díj&lt;/font&gt;" style="rhombus;whiteSpace=wrap;html=1;" parent="1" vertex="1">
          <mxGeometry x="4445.01" y="240.40999999999997" width="108.33" height="108.33" as="geometry" />
        </mxCell>
        <mxCell id="nhvX_3EtibqRzgdDVzNb-213" value="" style="endArrow=none;html=1;rounded=0;entryX=1;entryY=0.5;entryDx=0;entryDy=0;exitX=0;exitY=0.5;exitDx=0;exitDy=0;" parent="1" source="nhvX_3EtibqRzgdDVzNb-212" target="nhvX_3EtibqRzgdDVzNb-210" edge="1">
          <mxGeometry width="50" height="50" relative="1" as="geometry">
            <mxPoint x="4335" y="371.24" as="sourcePoint" />
            <mxPoint x="4385" y="321.24" as="targetPoint" />
          </mxGeometry>
        </mxCell>
        <mxCell id="nhvX_3EtibqRzgdDVzNb-217" style="edgeStyle=orthogonalEdgeStyle;rounded=0;orthogonalLoop=1;jettySize=auto;html=1;exitX=0.5;exitY=1;exitDx=0;exitDy=0;entryX=0.5;entryY=1;entryDx=0;entryDy=0;" parent="1" source="nhvX_3EtibqRzgdDVzNb-214" target="nhvX_3EtibqRzgdDVzNb-130" edge="1">
          <mxGeometry relative="1" as="geometry">
            <Array as="points">
              <mxPoint x="4153" y="760" />
              <mxPoint x="2784" y="760" />
            </Array>
          </mxGeometry>
        </mxCell>
        <mxCell id="nhvX_3EtibqRzgdDVzNb-214" value="&lt;font style=&quot;font-size: 16px;&quot;&gt;ELNY_FLM&lt;/font&gt;" style="rhombus;whiteSpace=wrap;html=1;" parent="1" vertex="1">
          <mxGeometry x="4100" y="240.41" width="106.66" height="106.66" as="geometry" />
        </mxCell>
        <mxCell id="nhvX_3EtibqRzgdDVzNb-215" value="" style="endArrow=none;html=1;rounded=0;entryX=0;entryY=0.5;entryDx=0;entryDy=0;exitX=1;exitY=0.5;exitDx=0;exitDy=0;" parent="1" source="nhvX_3EtibqRzgdDVzNb-214" target="nhvX_3EtibqRzgdDVzNb-210" edge="1">
          <mxGeometry width="50" height="50" relative="1" as="geometry">
            <mxPoint x="3815" y="451.24" as="sourcePoint" />
            <mxPoint x="3865" y="401.24" as="targetPoint" />
          </mxGeometry>
        </mxCell>
        <mxCell id="nhvX_3EtibqRzgdDVzNb-219" value="" style="endArrow=none;html=1;rounded=0;entryX=0.5;entryY=0;entryDx=0;entryDy=0;exitX=0.5;exitY=1;exitDx=0;exitDy=0;" parent="1" source="nhvX_3EtibqRzgdDVzNb-2" target="nhvX_3EtibqRzgdDVzNb-192" edge="1">
          <mxGeometry width="50" height="50" relative="1" as="geometry">
            <mxPoint x="1380" y="-150" as="sourcePoint" />
            <mxPoint x="3470" y="270" as="targetPoint" />
          </mxGeometry>
        </mxCell>
        <mxCell id="Ko34VSJ6wgW_978FLQU1-2" value="Karakter neve" style="ellipse;whiteSpace=wrap;html=1;fontSize=16;" vertex="1" parent="1">
          <mxGeometry x="2605" y="414.17" width="90" height="60" as="geometry" />
        </mxCell>
        <mxCell id="Ko34VSJ6wgW_978FLQU1-4" value="" style="edgeStyle=orthogonalEdgeStyle;rounded=0;orthogonalLoop=1;jettySize=auto;html=1;" edge="1" parent="1" source="Ko34VSJ6wgW_978FLQU1-5" target="Ko34VSJ6wgW_978FLQU1-2">
          <mxGeometry relative="1" as="geometry" />
        </mxCell>
        <mxCell id="Ko34VSJ6wgW_978FLQU1-5" value="" style="rounded=0;whiteSpace=wrap;html=1;rotation=90;fontSize=16;" vertex="1" parent="1">
          <mxGeometry x="2590" y="549.17" width="120" height="60" as="geometry" />
        </mxCell>
        <mxCell id="Ko34VSJ6wgW_978FLQU1-6" value="" style="endArrow=none;html=1;rounded=0;entryX=0.5;entryY=1;entryDx=0;entryDy=0;exitX=0;exitY=0.5;exitDx=0;exitDy=0;fontSize=16;" edge="1" parent="1">
          <mxGeometry width="50" height="50" relative="1" as="geometry">
            <mxPoint x="2649.52" y="519.17" as="sourcePoint" />
            <mxPoint x="2649.52" y="474.17" as="targetPoint" />
          </mxGeometry>
        </mxCell>
        <mxCell id="Ko34VSJ6wgW_978FLQU1-9" value="" style="endArrow=none;html=1;rounded=0;entryX=0.5;entryY=1;entryDx=0;entryDy=0;exitX=0.5;exitY=0;exitDx=0;exitDy=0;" edge="1" parent="1" source="Ko34VSJ6wgW_978FLQU1-11" target="nhvX_3EtibqRzgdDVzNb-180">
          <mxGeometry width="50" height="50" relative="1" as="geometry">
            <mxPoint x="2530" y="414.1700000000001" as="sourcePoint" />
            <mxPoint x="2630" y="460" as="targetPoint" />
          </mxGeometry>
        </mxCell>
        <mxCell id="Ko34VSJ6wgW_978FLQU1-10" value="" style="endArrow=none;html=1;rounded=0;entryX=0.5;entryY=1;entryDx=0;entryDy=0;exitX=0.5;exitY=0;exitDx=0;exitDy=0;" edge="1" parent="1" source="Ko34VSJ6wgW_978FLQU1-2" target="nhvX_3EtibqRzgdDVzNb-180">
          <mxGeometry width="50" height="50" relative="1" as="geometry">
            <mxPoint x="2580" y="510" as="sourcePoint" />
            <mxPoint x="2630" y="460" as="targetPoint" />
          </mxGeometry>
        </mxCell>
        <mxCell id="Ko34VSJ6wgW_978FLQU1-11" value="&lt;u&gt;SzerepelID&lt;/u&gt;" style="rhombus;whiteSpace=wrap;html=1;fontSize=16;" vertex="1" parent="1">
          <mxGeometry x="2481" y="400" width="90" height="90" as="geometry" />
        </mxCell>
        <mxCell id="Ko34VSJ6wgW_978FLQU1-12" value="" style="rounded=0;whiteSpace=wrap;html=1;rotation=90;fontSize=16;" vertex="1" parent="1">
          <mxGeometry x="850" y="560" width="120" height="60" as="geometry" />
        </mxCell>
        <mxCell id="Ko34VSJ6wgW_978FLQU1-14" value="" style="endArrow=none;html=1;rounded=0;entryX=0.5;entryY=1;entryDx=0;entryDy=0;exitX=0;exitY=0.5;exitDx=0;exitDy=0;" edge="1" parent="1" source="Ko34VSJ6wgW_978FLQU1-12" target="nhvX_3EtibqRzgdDVzNb-176">
          <mxGeometry width="50" height="50" relative="1" as="geometry">
            <mxPoint x="840" y="500" as="sourcePoint" />
            <mxPoint x="890" y="450" as="targetPoint" />
          </mxGeometry>
        </mxCell>
        <mxCell id="Ko34VSJ6wgW_978FLQU1-15" value="ÉLETTÁRS" style="ellipse;whiteSpace=wrap;html=1;fontSize=16;" vertex="1" parent="1">
          <mxGeometry x="3610" y="254.17" width="120" height="80" as="geometry" />
        </mxCell>
        <mxCell id="Ko34VSJ6wgW_978FLQU1-16" value="Név" style="ellipse;whiteSpace=wrap;html=1;fontSize=16;" vertex="1" parent="1">
          <mxGeometry x="3520" y="434.17" width="90" height="60" as="geometry" />
        </mxCell>
        <mxCell id="Ko34VSJ6wgW_978FLQU1-17" value="Születési dátum" style="ellipse;whiteSpace=wrap;html=1;fontSize=16;" vertex="1" parent="1">
          <mxGeometry x="3640" y="434.17" width="90" height="60" as="geometry" />
        </mxCell>
        <mxCell id="Ko34VSJ6wgW_978FLQU1-18" value="Születési hely" style="ellipse;whiteSpace=wrap;html=1;fontSize=16;" vertex="1" parent="1">
          <mxGeometry x="3770" y="434.17" width="90" height="60" as="geometry" />
        </mxCell>
        <mxCell id="Ko34VSJ6wgW_978FLQU1-19" value="" style="rounded=0;whiteSpace=wrap;html=1;rotation=90;fontSize=16;" vertex="1" parent="1">
          <mxGeometry x="3505" y="569.17" width="120" height="60" as="geometry" />
        </mxCell>
        <mxCell id="Ko34VSJ6wgW_978FLQU1-20" value="" style="rounded=0;whiteSpace=wrap;html=1;rotation=90;fontSize=16;" vertex="1" parent="1">
          <mxGeometry x="3755" y="569.17" width="120" height="60" as="geometry" />
        </mxCell>
        <mxCell id="Ko34VSJ6wgW_978FLQU1-22" value="" style="rounded=0;whiteSpace=wrap;html=1;rotation=90;fontSize=16;" vertex="1" parent="1">
          <mxGeometry x="3625" y="569.17" width="120" height="60" as="geometry" />
        </mxCell>
        <mxCell id="Ko34VSJ6wgW_978FLQU1-23" value="" style="endArrow=none;html=1;rounded=0;entryX=0.5;entryY=1;entryDx=0;entryDy=0;exitX=0;exitY=0.5;exitDx=0;exitDy=0;fontSize=16;" edge="1" parent="1" source="Ko34VSJ6wgW_978FLQU1-20" target="Ko34VSJ6wgW_978FLQU1-18">
          <mxGeometry width="50" height="50" relative="1" as="geometry">
            <mxPoint x="3810" y="554.17" as="sourcePoint" />
            <mxPoint x="3860" y="504.17" as="targetPoint" />
          </mxGeometry>
        </mxCell>
        <mxCell id="Ko34VSJ6wgW_978FLQU1-25" value="" style="endArrow=none;html=1;rounded=0;entryX=0.5;entryY=1;entryDx=0;entryDy=0;exitX=0;exitY=0.5;exitDx=0;exitDy=0;fontSize=16;" edge="1" parent="1">
          <mxGeometry width="50" height="50" relative="1" as="geometry">
            <mxPoint x="3564.52" y="539.17" as="sourcePoint" />
            <mxPoint x="3564.52" y="494.17" as="targetPoint" />
          </mxGeometry>
        </mxCell>
        <mxCell id="Ko34VSJ6wgW_978FLQU1-26" value="&lt;u&gt;ÉlettársID&lt;/u&gt;" style="rhombus;whiteSpace=wrap;html=1;fontSize=16;" vertex="1" parent="1">
          <mxGeometry x="3379.16" y="414.17" width="90" height="90" as="geometry" />
        </mxCell>
        <mxCell id="Ko34VSJ6wgW_978FLQU1-27" value="" style="endArrow=none;html=1;rounded=0;entryX=0.5;entryY=1;entryDx=0;entryDy=0;exitX=0.5;exitY=0;exitDx=0;exitDy=0;fontSize=16;" edge="1" parent="1" source="Ko34VSJ6wgW_978FLQU1-26" target="Ko34VSJ6wgW_978FLQU1-15">
          <mxGeometry width="50" height="50" relative="1" as="geometry">
            <mxPoint x="3400" y="484.17" as="sourcePoint" />
            <mxPoint x="3450" y="434.17" as="targetPoint" />
          </mxGeometry>
        </mxCell>
        <mxCell id="Ko34VSJ6wgW_978FLQU1-28" value="" style="endArrow=none;html=1;rounded=0;entryX=0.5;entryY=1;entryDx=0;entryDy=0;exitX=0.5;exitY=0;exitDx=0;exitDy=0;fontSize=16;" edge="1" parent="1" source="Ko34VSJ6wgW_978FLQU1-16" target="Ko34VSJ6wgW_978FLQU1-15">
          <mxGeometry width="50" height="50" relative="1" as="geometry">
            <mxPoint x="3400" y="484.17" as="sourcePoint" />
            <mxPoint x="3450" y="434.17" as="targetPoint" />
          </mxGeometry>
        </mxCell>
        <mxCell id="Ko34VSJ6wgW_978FLQU1-29" value="" style="endArrow=none;html=1;rounded=0;entryX=0.5;entryY=1;entryDx=0;entryDy=0;exitX=0.5;exitY=0;exitDx=0;exitDy=0;fontSize=16;" edge="1" parent="1" source="Ko34VSJ6wgW_978FLQU1-17" target="Ko34VSJ6wgW_978FLQU1-15">
          <mxGeometry width="50" height="50" relative="1" as="geometry">
            <mxPoint x="3400" y="484.17" as="sourcePoint" />
            <mxPoint x="3450" y="434.17" as="targetPoint" />
          </mxGeometry>
        </mxCell>
        <mxCell id="Ko34VSJ6wgW_978FLQU1-30" value="" style="endArrow=none;html=1;rounded=0;exitX=0.5;exitY=0;exitDx=0;exitDy=0;fontSize=16;" edge="1" parent="1" source="Ko34VSJ6wgW_978FLQU1-18">
          <mxGeometry width="50" height="50" relative="1" as="geometry">
            <mxPoint x="3400" y="484.17" as="sourcePoint" />
            <mxPoint x="3670" y="334.17" as="targetPoint" />
          </mxGeometry>
        </mxCell>
        <mxCell id="Ko34VSJ6wgW_978FLQU1-31" value="" style="ellipse;whiteSpace=wrap;html=1;fillStyle=solid;fillColor=none;" vertex="1" parent="1">
          <mxGeometry x="3620" y="260.83" width="100" height="66.67" as="geometry" />
        </mxCell>
        <mxCell id="Ko34VSJ6wgW_978FLQU1-32" style="edgeStyle=orthogonalEdgeStyle;rounded=0;orthogonalLoop=1;jettySize=auto;html=1;exitX=0.5;exitY=1;exitDx=0;exitDy=0;entryX=0.5;entryY=0;entryDx=0;entryDy=0;" edge="1" parent="1" source="Ko34VSJ6wgW_978FLQU1-33" target="Ko34VSJ6wgW_978FLQU1-26">
          <mxGeometry relative="1" as="geometry" />
        </mxCell>
        <mxCell id="Ko34VSJ6wgW_978FLQU1-38" style="edgeStyle=orthogonalEdgeStyle;rounded=0;orthogonalLoop=1;jettySize=auto;html=1;exitX=0;exitY=0.5;exitDx=0;exitDy=0;entryX=1;entryY=1;entryDx=0;entryDy=0;" edge="1" parent="1" source="Ko34VSJ6wgW_978FLQU1-33" target="nhvX_3EtibqRzgdDVzNb-130">
          <mxGeometry relative="1" as="geometry">
            <Array as="points">
              <mxPoint x="3370" y="710" />
              <mxPoint x="2807" y="710" />
            </Array>
          </mxGeometry>
        </mxCell>
        <mxCell id="Ko34VSJ6wgW_978FLQU1-33" value="&lt;font size=&quot;3&quot;&gt;EGYÜTT ÉL&lt;/font&gt;" style="rhombus;whiteSpace=wrap;html=1;" vertex="1" parent="1">
          <mxGeometry x="3370" y="237.50999999999996" width="108.33" height="108.33" as="geometry" />
        </mxCell>
        <mxCell id="Ko34VSJ6wgW_978FLQU1-35" value="" style="endArrow=none;html=1;rounded=0;entryX=0.5;entryY=1;entryDx=0;entryDy=0;exitX=0;exitY=0.5;exitDx=0;exitDy=0;" edge="1" parent="1" source="Ko34VSJ6wgW_978FLQU1-22" target="Ko34VSJ6wgW_978FLQU1-17">
          <mxGeometry width="50" height="50" relative="1" as="geometry">
            <mxPoint x="3680" y="520" as="sourcePoint" />
            <mxPoint x="3730" y="470" as="targetPoint" />
          </mxGeometry>
        </mxCell>
        <mxCell id="nhvX_3EtibqRzgdDVzNb-152" value="FELHASZNÁLÓ" style="ellipse;whiteSpace=wrap;html=1;fillStyle=solid;fillColor=none;" parent="1" vertex="1">
          <mxGeometry x="2110" y="246.65999999999997" width="100" height="66.67" as="geometry" />
        </mxCell>
      </root>
    </mxGraphModel>
  </diagram>
</mxfile>
